<svg width="96" height="48" viewBox="0 0 96 48" fill="none" xmlns="http://www.w3.org/2000/svg">
<path fill-rule="evenodd" clip-rule="evenodd" d="M9.18106 32.2012L7.94606 32.22C4.57533 32.2701 1.66553 28.9696 1.66993 24.9709C1.67432 20.9723 4.60348 17.8408 7.97333 17.8053L18.9608 17.6895L18.9599 20.8105L8.02171 20.8825C6.07862 20.895 4.24635 22.8787 4.24723 25.1838C4.24635 27.4888 6.09005 29.4036 8.03403 29.3932L9.18194 29.387L9.18106 32.1992V32.2012Z" fill="#F08143"/>
<path fill-rule="evenodd" clip-rule="evenodd" d="M15.3125 9.29883C18.6833 9.29987 21.4409 12.5712 21.4409 16.5709L21.4391 34.426C21.4383 38.4247 18.6806 41.696 15.309 41.696C11.9383 41.695 9.18066 38.4236 9.18066 34.4239L9.18242 16.5688C9.1833 12.5702 11.9418 9.29883 15.3125 9.29883ZM15.4278 12.4126C17.3717 12.4136 18.9612 14.2992 18.9612 16.6053L18.9586 34.3498C18.9586 36.656 17.3682 38.5415 15.4243 38.5415C13.4812 38.5405 11.8908 36.6549 11.8917 34.3488L11.8934 16.6043C11.8943 14.2982 13.4838 12.4126 15.4278 12.4126Z" fill="#2B2A29"/>
<path fill-rule="evenodd" clip-rule="evenodd" d="M21.4418 17.6894L22.902 17.6832C26.2727 17.6675 28.9459 21.1162 28.9151 25.1149C28.8843 29.1135 26.1891 32.1887 22.8184 32.1939L11.8926 32.2096L11.8935 29.4161L22.5695 29.2951C24.5126 29.2732 26.3888 27.4179 26.3888 25.1117C26.3888 22.8056 24.5733 21.0651 22.6346 20.9117L21.4471 20.8178L21.4418 17.6894Z" fill="#57A7B3"/>
<path d="M31.869 14.4382L34.2783 13.9248C34.4807 14.7366 34.9988 15.1425 35.8379 15.1425C36.4888 15.1425 36.8134 14.937 36.8134 14.5258C36.8134 14.3109 36.7369 14.1429 36.5874 14.0249C36.4369 13.9049 36.1687 13.7964 35.7799 13.7067C34.3003 13.3707 33.3503 12.9293 32.9299 12.3877C32.5094 11.8441 32.3001 11.2044 32.3001 10.4698C32.3001 9.52439 32.6027 8.7376 33.207 8.1115C33.8113 7.48541 34.6795 7.17236 35.8142 7.17236C37.5338 7.17236 38.6686 7.9915 39.2227 9.63395L37.08 10.4061C36.8556 9.73413 36.4044 9.39812 35.7236 9.39812C35.158 9.39812 34.8738 9.60578 34.8738 10.0221C34.8738 10.2079 34.9372 10.3529 35.0665 10.4552C35.1932 10.5574 35.4403 10.6534 35.808 10.7463C36.8196 10.9947 37.5382 11.2148 37.9631 11.4079C38.388 11.5988 38.7433 11.9317 39.0257 12.4075C39.3089 12.8813 39.4505 13.4406 39.4505 14.0844C39.4505 15.0997 39.104 15.9241 38.4108 16.5565C37.7177 17.1878 36.8064 17.5039 35.6805 17.5039C33.6221 17.5039 32.3502 16.4813 31.8682 14.4382H31.869Z" fill="#2B2A29"/>
<path d="M45.0311 17.3528L44.564 15.3827H42.2629L41.7641 17.3528H39.6592L42.2752 7.32178H45.0179L47.6779 17.3528H45.0302H45.0311ZM42.7344 13.1872H44.0872L43.409 10.2822L42.7352 13.1872H42.7344Z" fill="#2B2A29"/>
<path d="M55.2559 7.32178L52.6311 17.3528H49.9878L47.2363 7.32178H49.9684L51.3125 12.7761C51.4031 13.0996 51.4858 13.4157 51.5553 13.7288L53.121 7.32178H55.255H55.2559Z" fill="#2B2A29"/>
<path d="M62.3914 14.9622V17.3528H56.0273V7.32178H62.3914V9.63728H58.5756V11.0971H61.6561V13.3229H58.5756V14.9622H62.3914Z" fill="#2B2A29"/>
<path d="M70.0557 9.72806V17.3528H67.5963V9.72806H65.8467V7.32178H71.8053V9.72806H70.0557Z" fill="#2B2A29"/>
<path d="M79.7058 7.32178V17.3528H77.1065V13.4575H75.1414V17.3528H72.543V7.32178H75.1414V11.022H77.1065V7.32178H79.7058Z" fill="#2B2A29"/>
<path d="M87.5428 14.9622V17.3528H81.1787V7.32178H87.5428V9.63728H83.727V11.0971H86.8074V13.3229H83.727V14.9622H87.5428Z" fill="#2B2A29"/>
<path d="M32.3369 44.1711V19.3789H40.4163C43.9304 19.3789 46.5578 20.6113 48.3021 23.0833C50.0464 25.5553 50.9181 28.4113 50.9181 31.6576C50.9181 35.362 49.984 38.3735 48.1086 40.6963C46.2385 43.0129 43.8055 44.1711 40.8183 44.1711H32.3369ZM38.7608 38.4841H40.4321C41.4921 38.4841 42.3902 37.8706 43.1159 36.6445C43.8468 35.4173 44.2128 33.7509 44.2128 31.6388C44.2128 29.8305 43.889 28.2684 43.2416 26.9557C42.5942 25.6482 41.6539 24.9918 40.4321 24.9918H38.7608V38.4852V38.4841Z" fill="#2B2A29"/>
<path d="M64.4746 44.1711L63.3206 39.3022H57.6338L56.4014 44.1711H51.2002L57.6655 19.3789H64.4439L71.0182 44.1711H64.4746ZM58.7984 33.875H62.141L60.4653 26.6948L58.7993 33.875H58.7984Z" fill="#2B2A29"/>
<path d="M88.4868 19.3779L81.9582 33.6883V44.1712H75.7234V33.6883L68.6943 19.3779H75.7076L79.3844 27.5307L82.8827 19.3779H88.4868Z" fill="#2B2A29"/>
</svg>
